<mxfile host="app.diagrams.net" modified="2023-05-22T21:44:39.409Z" agent="Mozilla/5.0 (Windows NT 10.0; Win64; x64) AppleWebKit/537.36 (KHTML, like Gecko) Chrome/113.0.0.0 Safari/537.36" etag="Jw1nfjefnqkBoFUBHljI" version="21.3.2" type="github">
  <diagram id="C5RBs43oDa-KdzZeNtuy" name="Page-1">
    <mxGraphModel dx="1434" dy="768" grid="1" gridSize="10" guides="1" tooltips="1" connect="1" arrows="1" fold="1" page="1" pageScale="1" pageWidth="827" pageHeight="1169" math="0" shadow="0">
      <root>
        <mxCell id="WIyWlLk6GJQsqaUBKTNV-0" />
        <mxCell id="WIyWlLk6GJQsqaUBKTNV-1" parent="WIyWlLk6GJQsqaUBKTNV-0" />
        <mxCell id="5qjtVuWRDw3v2nPKYAL_-3" value="fichier 3D issu d&#39;une modélisation" style="swimlane;fontStyle=0;childLayout=stackLayout;horizontal=1;startSize=30;horizontalStack=0;resizeParent=1;resizeParentMax=0;resizeLast=0;collapsible=1;marginBottom=0;whiteSpace=wrap;html=1;" vertex="1" parent="WIyWlLk6GJQsqaUBKTNV-1">
          <mxGeometry x="160" y="50" width="479" height="90" as="geometry" />
        </mxCell>
        <mxCell id="5qjtVuWRDw3v2nPKYAL_-4" value="-- liste des coordonnées de tous les sommets du polygone" style="text;strokeColor=none;fillColor=none;align=left;verticalAlign=middle;spacingLeft=4;spacingRight=4;overflow=hidden;points=[[0,0.5],[1,0.5]];portConstraint=eastwest;rotatable=0;whiteSpace=wrap;html=1;" vertex="1" parent="5qjtVuWRDw3v2nPKYAL_-3">
          <mxGeometry y="30" width="479" height="30" as="geometry" />
        </mxCell>
        <mxCell id="5qjtVuWRDw3v2nPKYAL_-6" value="- liste des arêtes contenant les numéros des 2 points que chaque arête relie" style="text;strokeColor=none;fillColor=none;align=left;verticalAlign=middle;spacingLeft=4;spacingRight=4;overflow=hidden;points=[[0,0.5],[1,0.5]];portConstraint=eastwest;rotatable=0;whiteSpace=wrap;html=1;" vertex="1" parent="5qjtVuWRDw3v2nPKYAL_-3">
          <mxGeometry y="60" width="479" height="30" as="geometry" />
        </mxCell>
        <mxCell id="5qjtVuWRDw3v2nPKYAL_-16" style="edgeStyle=orthogonalEdgeStyle;rounded=0;orthogonalLoop=1;jettySize=auto;html=1;exitX=0.5;exitY=1;exitDx=0;exitDy=0;entryX=0.5;entryY=0;entryDx=0;entryDy=0;" edge="1" parent="WIyWlLk6GJQsqaUBKTNV-1" source="5qjtVuWRDw3v2nPKYAL_-8" target="5qjtVuWRDw3v2nPKYAL_-11">
          <mxGeometry relative="1" as="geometry" />
        </mxCell>
        <mxCell id="5qjtVuWRDw3v2nPKYAL_-8" value="&lt;div&gt;fonction &quot;strToMatrix&quot; qui permet de formater les données sous forme de tableau&lt;/div&gt;" style="rounded=0;whiteSpace=wrap;html=1;" vertex="1" parent="WIyWlLk6GJQsqaUBKTNV-1">
          <mxGeometry x="160" y="180" width="479" height="40" as="geometry" />
        </mxCell>
        <mxCell id="5qjtVuWRDw3v2nPKYAL_-11" value="matrice contenant 2 tableaux" style="swimlane;fontStyle=0;childLayout=stackLayout;horizontal=1;startSize=30;horizontalStack=0;resizeParent=1;resizeParentMax=0;resizeLast=0;collapsible=1;marginBottom=0;whiteSpace=wrap;html=1;" vertex="1" parent="WIyWlLk6GJQsqaUBKTNV-1">
          <mxGeometry x="160" y="290" width="479" height="90" as="geometry" />
        </mxCell>
        <mxCell id="5qjtVuWRDw3v2nPKYAL_-12" value="-- un tableau contenant la liste des coordonnées de tous les sommets du polygone" style="text;strokeColor=none;fillColor=none;align=left;verticalAlign=middle;spacingLeft=4;spacingRight=4;overflow=hidden;points=[[0,0.5],[1,0.5]];portConstraint=eastwest;rotatable=0;whiteSpace=wrap;html=1;" vertex="1" parent="5qjtVuWRDw3v2nPKYAL_-11">
          <mxGeometry y="30" width="479" height="30" as="geometry" />
        </mxCell>
        <mxCell id="5qjtVuWRDw3v2nPKYAL_-14" value="-un tableau contenant&amp;nbsp;la liste des arêtes contenant les numéros des 2 points que chaque arête relie" style="text;strokeColor=none;fillColor=none;align=left;verticalAlign=middle;spacingLeft=4;spacingRight=4;overflow=hidden;points=[[0,0.5],[1,0.5]];portConstraint=eastwest;rotatable=0;whiteSpace=wrap;html=1;" vertex="1" parent="5qjtVuWRDw3v2nPKYAL_-11">
          <mxGeometry y="60" width="479" height="30" as="geometry" />
        </mxCell>
        <mxCell id="5qjtVuWRDw3v2nPKYAL_-18" value="&lt;div&gt;Ajout de chaque face à la liste des faces à afficher avec la fonction &quot;AddTriangle&quot;&lt;/div&gt;" style="rounded=0;whiteSpace=wrap;html=1;" vertex="1" parent="WIyWlLk6GJQsqaUBKTNV-1">
          <mxGeometry x="160" y="450" width="479" height="40" as="geometry" />
        </mxCell>
        <mxCell id="5qjtVuWRDw3v2nPKYAL_-22" value="" style="endArrow=classic;html=1;rounded=0;entryX=0.5;entryY=0;entryDx=0;entryDy=0;exitX=0.5;exitY=1.035;exitDx=0;exitDy=0;exitPerimeter=0;" edge="1" parent="WIyWlLk6GJQsqaUBKTNV-1" source="5qjtVuWRDw3v2nPKYAL_-14" target="5qjtVuWRDw3v2nPKYAL_-18">
          <mxGeometry width="50" height="50" relative="1" as="geometry">
            <mxPoint x="490" y="430" as="sourcePoint" />
            <mxPoint x="440" y="410" as="targetPoint" />
          </mxGeometry>
        </mxCell>
        <mxCell id="5qjtVuWRDw3v2nPKYAL_-23" value="" style="endArrow=classic;html=1;rounded=0;entryX=0.5;entryY=0;entryDx=0;entryDy=0;" edge="1" parent="WIyWlLk6GJQsqaUBKTNV-1" target="5qjtVuWRDw3v2nPKYAL_-8">
          <mxGeometry width="50" height="50" relative="1" as="geometry">
            <mxPoint x="400" y="140" as="sourcePoint" />
            <mxPoint x="430" y="180" as="targetPoint" />
          </mxGeometry>
        </mxCell>
      </root>
    </mxGraphModel>
  </diagram>
</mxfile>
